<svg xmlns="http://www.w3.org/2000/svg" xmlns:xlink="http://www.w3.org/1999/xlink" viewBox="0 0 278.89 86.55"><defs><style>.cls-1{fill:none;}.cls-2{clip-path:url(#clip-path);}.cls-3{fill:#c1e6fb;}.cls-4{fill:#56c1ff;}.cls-5{fill:#00a2ff;}.cls-6{fill:#004d80;}.cls-7,.cls-8{fill:#026db7;}.cls-8{font-size:53px;}.cls-8,.cls-9{font-family:Avenir-Black, Avenir;font-weight:800;}.cls-9{font-size:50px;fill:#fff;letter-spacing:0.05em;}</style><clipPath id="clip-path" transform="translate(1.05)"><rect class="cls-1" width="277.85" height="75"/></clipPath></defs><g id="Layer_2" data-name="Layer 2"><g id="V13_long"><g class="cls-2"><rect class="cls-3" x="228.89" y="5" width="10" height="70"/><rect class="cls-3" x="238.89" y="15" width="10" height="60"/><rect class="cls-3" x="248.89" y="10" width="10" height="65"/><rect class="cls-3" x="258.89" width="10" height="75"/><rect class="cls-3" x="268.89" width="10" height="75"/><rect class="cls-4" x="198.89" y="15" width="10" height="60"/><rect class="cls-4" x="208.89" y="5" width="10" height="70"/><rect class="cls-4" x="218.89" width="10" height="75"/><rect class="cls-4" x="228.89" y="10" width="10" height="65"/><rect class="cls-4" x="238.89" y="20" width="10" height="55"/><rect class="cls-4" x="248.89" y="15" width="10" height="60"/><rect class="cls-4" x="258.89" y="10" width="10" height="65"/><rect class="cls-4" x="268.89" y="5" width="10" height="70"/><rect class="cls-5" x="188.89" y="30" width="10" height="45"/><rect class="cls-5" x="198.89" y="20" width="10" height="55"/><rect class="cls-5" x="208.89" y="10" width="10" height="65"/><rect class="cls-5" x="218.89" y="15" width="10" height="60"/><rect class="cls-5" x="228.89" y="25" width="10" height="50"/><rect class="cls-5" x="238.89" y="35" width="10" height="40"/><rect class="cls-5" x="248.89" y="30" width="10" height="45"/><rect class="cls-5" x="258.89" y="25" width="10" height="50"/><rect class="cls-5" x="268.89" y="15" width="10" height="60"/><rect class="cls-6" x="178.89" y="55" width="10" height="20"/><rect class="cls-6" x="188.89" y="40" width="10" height="35"/><rect class="cls-6" x="198.89" y="25" width="10" height="50"/><rect class="cls-6" x="208.89" y="20" width="10" height="55"/><rect class="cls-6" x="218.89" y="30" width="10" height="45"/><rect class="cls-6" x="228.89" y="40" width="10" height="35"/><rect class="cls-6" x="238.89" y="40" width="10" height="35"/><rect class="cls-6" x="248.89" y="35" width="10" height="40"/><rect class="cls-6" x="258.89" y="30" width="10" height="45"/><rect class="cls-6" x="268.89" y="25" width="10" height="50"/><rect class="cls-7" x="158.89" y="70" width="10" height="5"/><rect class="cls-7" x="168.89" y="65" width="10" height="10"/><rect class="cls-7" x="178.89" y="60" width="10" height="15"/><rect class="cls-7" x="188.89" y="50" width="10" height="25"/><rect class="cls-7" x="198.89" y="35" width="10" height="40"/><rect class="cls-7" x="208.89" y="45" width="10" height="30"/><rect class="cls-7" x="218.89" y="50" width="10" height="25"/><rect class="cls-7" x="228.89" y="55" width="10" height="20"/><rect class="cls-7" x="238.89" y="55" width="10" height="20"/><rect class="cls-7" x="248.89" y="60" width="10" height="15"/><rect class="cls-7" x="258.89" y="60" width="10" height="15"/><rect class="cls-7" x="268.89" y="55" width="10" height="20"/><text class="cls-8" transform="translate(0 62.33)">COVID</text><text class="cls-9" transform="translate(196.96 61.33)">CG</text></g></g></g></svg>