<svg xmlns="http://www.w3.org/2000/svg" xmlns:xlink="http://www.w3.org/1999/xlink" viewBox="0 0 139.31 75"><defs><style>.cls-1{fill:none;stroke:#026db7;stroke-miterlimit:10;stroke-width:3px;}.cls-2{clip-path:url(#clip-path);}.cls-3{fill:#c1e6fb;}.cls-4{fill:#56c1ff;}.cls-5{fill:#00a2ff;}.cls-6{fill:#004d80;}.cls-7{fill:#026db7;}.cls-8{fill:#fff;}</style><clipPath id="clip-path" transform="translate(0 3.5)"><rect class="cls-1" x="1.5" y="1.5" width="97.81" height="60"/></clipPath></defs><g id="Layer_2" data-name="Layer 2"><g id="V13_short"><g class="cls-2"><rect class="cls-3" x="89.31" y="5" width="10" height="70"/><rect class="cls-3" x="99.31" y="15" width="10" height="60"/><rect class="cls-3" x="109.31" y="10" width="10" height="65"/><rect class="cls-3" x="119.31" width="10" height="75"/><rect class="cls-3" x="129.31" width="10" height="75"/><rect class="cls-4" x="59.31" y="10" width="10" height="65"/><rect class="cls-4" x="69.31" y="5" width="10" height="70"/><rect class="cls-4" x="79.31" width="10" height="75"/><rect class="cls-4" x="89.31" y="5" width="10" height="70"/><rect class="cls-4" x="99.31" y="20" width="10" height="55"/><rect class="cls-4" x="109.31" y="15" width="10" height="60"/><rect class="cls-4" x="119.31" y="10" width="10" height="65"/><rect class="cls-4" x="129.31" y="5" width="10" height="70"/><rect class="cls-4" x="49.31" y="20" width="10" height="55"/><rect class="cls-5" x="49.31" y="25" width="10" height="50"/><rect class="cls-5" x="59.31" y="15" width="10" height="60"/><rect class="cls-5" x="69.31" y="10" width="10" height="65"/><rect class="cls-5" x="79.31" y="15" width="10" height="60"/><rect class="cls-5" x="89.31" y="20" width="10" height="55"/><rect class="cls-5" x="99.31" y="35" width="10" height="40"/><rect class="cls-5" x="109.31" y="30" width="10" height="45"/><rect class="cls-5" x="119.31" y="25" width="10" height="50"/><rect class="cls-5" x="129.31" y="15" width="10" height="60"/><rect class="cls-6" x="39.31" y="55" width="10" height="20"/><rect class="cls-6" x="49.31" y="30" width="10" height="45"/><rect class="cls-6" x="59.31" y="25" width="10" height="50"/><rect class="cls-6" x="69.31" y="20" width="10" height="55"/><rect class="cls-6" x="79.31" y="30" width="10" height="45"/><rect class="cls-6" x="89.31" y="40" width="10" height="35"/><rect class="cls-6" x="99.31" y="40" width="10" height="35"/><rect class="cls-6" x="109.31" y="35" width="10" height="40"/><rect class="cls-6" x="119.31" y="30" width="10" height="45"/><rect class="cls-6" x="129.31" y="25" width="10" height="50"/><rect class="cls-7" x="29.31" y="60" width="10" height="15"/><rect class="cls-7" x="39.31" y="60" width="10" height="15"/><rect class="cls-7" x="49.31" y="45" width="10" height="30"/><rect class="cls-7" x="59.31" y="35" width="10" height="40"/><rect class="cls-7" x="69.31" y="45" width="10" height="30"/><rect class="cls-7" x="79.31" y="50" width="10" height="25"/><rect class="cls-7" x="89.31" y="55" width="10" height="20"/><rect class="cls-7" x="99.31" y="55" width="10" height="20"/><rect class="cls-7" x="109.31" y="60" width="10" height="15"/><rect class="cls-7" x="119.31" y="60" width="10" height="15"/><rect class="cls-7" x="129.31" y="55" width="10" height="20"/></g><rect class="cls-1" x="1.5" y="5" width="97.81" height="60"/><path class="cls-7" d="M35.44,23.54a7.44,7.44,0,0,0-2.71-2.06A9.08,9.08,0,0,0,29,20.76a9.33,9.33,0,0,0-7,3.1,10.56,10.56,0,0,0-2.06,3.48,13.33,13.33,0,0,0,0,8.76,11.06,11.06,0,0,0,2,3.45A9.08,9.08,0,0,0,25,41.83a8.73,8.73,0,0,0,3.77.82,8.48,8.48,0,0,0,4.08-1A8.09,8.09,0,0,0,35.77,39L42,43.66a13,13,0,0,1-5.47,4.46,16.93,16.93,0,0,1-6.81,1.44,21,21,0,0,1-7.35-1.25,16.74,16.74,0,0,1-5.8-3.57,16.23,16.23,0,0,1-3.82-5.64,19.28,19.28,0,0,1-1.37-7.4,19.23,19.23,0,0,1,1.37-7.39,16.05,16.05,0,0,1,3.82-5.64,16.74,16.74,0,0,1,5.8-3.57,20.77,20.77,0,0,1,7.35-1.25,18.63,18.63,0,0,1,3,.26A16.85,16.85,0,0,1,35.8,15a14,14,0,0,1,2.9,1.54,11.56,11.56,0,0,1,2.5,2.35Z" transform="translate(0 3.5)"/><path class="cls-8" d="M90.13,46.3a27.1,27.1,0,0,1-6.91,2.49,35.27,35.27,0,0,1-7.35.77,21,21,0,0,1-7.34-1.25,16.88,16.88,0,0,1-5.81-3.57,16.35,16.35,0,0,1-3.81-5.64,19.28,19.28,0,0,1-1.37-7.4,19.23,19.23,0,0,1,1.37-7.39,16.16,16.16,0,0,1,3.81-5.64,16.88,16.88,0,0,1,5.81-3.57,20.76,20.76,0,0,1,7.34-1.25,27.48,27.48,0,0,1,7.52,1,14.82,14.82,0,0,1,6,3.39L84.13,24a10.28,10.28,0,0,0-3.46-2.4,12.2,12.2,0,0,0-4.8-.82,11,11,0,0,0-4.34.82,9.6,9.6,0,0,0-3.33,2.28,9.8,9.8,0,0,0-2.14,3.48,13.33,13.33,0,0,0,0,8.76,9.94,9.94,0,0,0,2.14,3.45,9.6,9.6,0,0,0,3.33,2.28,11,11,0,0,0,4.34.82,14.57,14.57,0,0,0,4.23-.55A16.37,16.37,0,0,0,82.93,41V35.45h-6.1V28.54h13.3Z" transform="translate(0 3.5)"/></g></g></svg>