<?xml version="1.0" encoding="UTF-8"?><svg id="a" xmlns="http://www.w3.org/2000/svg" viewBox="0 0 278.64 75.02"><defs><style>.b{fill:#014e80;}.c{fill:#68bdea;}.d{fill:#c2e6f9;}.e,.f{fill:#0d6eb7;}.g{fill:#4999d4;}.h{font-family:Avenir-Medium, Avenir;font-size:12px;}.h,.i{fill:#fff;}.i{font-size:36px;}.i,.f{font-family:Avenir-Black, Avenir;isolation:isolate;}.f{font-size:53px;}</style></defs><g><rect class="d" x="172.69" y="5" width="21.24" height="70"/><rect class="d" x="193.93" y="15" width="21.24" height="60"/><rect class="d" x="215.17" y="10" width="21.24" height="65"/><rect class="d" x="236.41" width="21.24" height="75"/><rect class="d" x="257.65" width="21.24" height="75"/><rect class="c" x="108.98" y="7.99" width="21.24" height="67.01"/><rect class="c" x="130.22" y="5" width="21.24" height="70"/><rect class="c" x="151.45" width="21.24" height="75"/><rect class="c" x="172.69" y="10" width="21.24" height="65"/><rect class="c" x="193.93" y="20" width="21.24" height="55"/><rect class="c" x="215.17" y="15" width="21.24" height="60"/><rect class="c" x="236.41" y="10" width="21.24" height="65"/><rect class="c" x="257.65" y="5" width="21.24" height="70"/><rect class="g" x="108.98" y="13.58" width="21.24" height="61.42"/><rect class="g" x="130.22" y="10" width="21.24" height="65"/><rect class="g" x="151.45" y="15" width="21.24" height="60"/><rect class="g" x="172.69" y="25" width="21.24" height="50"/><rect class="g" x="193.93" y="35" width="21.24" height="40"/><rect class="g" x="215.17" y="30" width="21.24" height="45"/><rect class="g" x="236.41" y="25" width="21.24" height="50"/><rect class="g" x="257.65" y="15" width="21.24" height="60"/><rect class="b" x="108.98" y="19.16" width="21.24" height="55.84"/><rect class="b" x="130.22" y="20" width="21.24" height="55"/><rect class="b" x="151.45" y="30" width="21.24" height="45"/><rect class="b" x="172.69" y="40" width="21.24" height="35"/><rect class="b" x="193.93" y="40" width="21.24" height="35"/><rect class="b" x="215.17" y="35" width="21.24" height="40"/><rect class="b" x="236.41" y="30" width="21.24" height="45"/><rect class="b" x="257.65" y="25" width="21.24" height="50"/><rect class="e" x="108.98" y="30.33" width="21.24" height="44.67"/><rect class="e" x="130.22" y="45" width="21.24" height="30"/><rect class="e" x="151.45" y="50" width="21.24" height="25"/><rect class="e" x="172.69" y="55" width="21.24" height="20"/><rect class="e" x="193.93" y="55" width="21.24" height="20"/><rect class="e" x="215.17" y="60" width="21.24" height="15"/><rect class="e" x="236.41" y="60" width="21.24" height="15"/><rect class="e" x="257.65" y="55" width="21.24" height="20"/></g><text class="f" transform="translate(0 55.32)"><tspan x="0" y="0">RSV</tspan></text><text class="i" transform="translate(114.44 55.32)"><tspan x="0" y="0">PathMut</tspan></text><text class="h" transform="translate(115.03 70.26)"><tspan x="0" y="0">Pathogen Mutation Database</tspan></text></svg>