<?xml version="1.0" encoding="UTF-8"?><svg id="Layer_2" xmlns="http://www.w3.org/2000/svg" viewBox="0 0 278.64 75.02"><defs><style>.cls-1{fill:#014e80;}.cls-2{fill:#68bdea;}.cls-3{fill:#c2e6f9;}.cls-4,.cls-5{fill:#0d6eb7;}.cls-6{fill:#4999d4;}.cls-7{font-family:Avenir-Medium, Avenir;font-size:12px;}.cls-7,.cls-8{fill:#fff;}.cls-8{font-size:36px;}.cls-8,.cls-5{font-family:Avenir-Black, Avenir;isolation:isolate;}.cls-5{font-size:53px;}</style></defs><g><rect class="cls-3" x="172.69" y="5" width="21.24" height="70"/><rect class="cls-3" x="193.93" y="15" width="21.24" height="60"/><rect class="cls-3" x="215.17" y="10" width="21.24" height="65"/><rect class="cls-3" x="236.41" width="21.24" height="75"/><rect class="cls-3" x="257.65" width="21.24" height="75"/><rect class="cls-2" x="108.98" y="7.99" width="21.24" height="67.01"/><rect class="cls-2" x="130.22" y="5" width="21.24" height="70"/><rect class="cls-2" x="151.45" width="21.24" height="75"/><rect class="cls-2" x="172.69" y="10" width="21.24" height="65"/><rect class="cls-2" x="193.93" y="20" width="21.24" height="55"/><rect class="cls-2" x="215.17" y="15" width="21.24" height="60"/><rect class="cls-2" x="236.41" y="10" width="21.24" height="65"/><rect class="cls-2" x="257.65" y="5" width="21.24" height="70"/><rect class="cls-6" x="108.98" y="13.58" width="21.24" height="61.42"/><rect class="cls-6" x="130.22" y="10" width="21.24" height="65"/><rect class="cls-6" x="151.45" y="15" width="21.24" height="60"/><rect class="cls-6" x="172.69" y="25" width="21.24" height="50"/><rect class="cls-6" x="193.93" y="35" width="21.24" height="40"/><rect class="cls-6" x="215.17" y="30" width="21.24" height="45"/><rect class="cls-6" x="236.41" y="25" width="21.24" height="50"/><rect class="cls-6" x="257.65" y="15" width="21.24" height="60"/><rect class="cls-1" x="108.98" y="19.16" width="21.24" height="55.84"/><rect class="cls-1" x="130.22" y="20" width="21.24" height="55"/><rect class="cls-1" x="151.45" y="30" width="21.24" height="45"/><rect class="cls-1" x="172.69" y="40" width="21.24" height="35"/><rect class="cls-1" x="193.93" y="40" width="21.24" height="35"/><rect class="cls-1" x="215.17" y="35" width="21.24" height="40"/><rect class="cls-1" x="236.41" y="30" width="21.24" height="45"/><rect class="cls-1" x="257.65" y="25" width="21.24" height="50"/><rect class="cls-4" x="108.98" y="30.33" width="21.24" height="44.67"/><rect class="cls-4" x="130.22" y="45" width="21.24" height="30"/><rect class="cls-4" x="151.45" y="50" width="21.24" height="25"/><rect class="cls-4" x="172.69" y="55" width="21.24" height="20"/><rect class="cls-4" x="193.93" y="55" width="21.24" height="20"/><rect class="cls-4" x="215.17" y="60" width="21.24" height="15"/><rect class="cls-4" x="236.41" y="60" width="21.24" height="15"/><rect class="cls-4" x="257.65" y="55" width="21.24" height="20"/></g><text class="cls-5" transform="translate(0 55.32)"><tspan x="0" y="0">RSV</tspan></text><text class="cls-8" transform="translate(114.44 55.32)"><tspan x="0" y="0">PathMut</tspan></text><text class="cls-7" transform="translate(115.03 70.26)"><tspan x="0" y="0">Pathogen Mutation Database</tspan></text></svg>