<?xml version="1.0" encoding="utf-8"?>
<!-- Generator: Adobe Illustrator 19.2.1, SVG Export Plug-In . SVG Version: 6.00 Build 0)  -->
<svg version="1.1" id="layer" xmlns="http://www.w3.org/2000/svg" xmlns:xlink="http://www.w3.org/1999/xlink" x="0px" y="0px"
	 viewBox="0 0 652 652" style="enable-background:new 0 0 652 652;" xml:space="preserve">
<style type="text/css">
	.st0{fill:#FFFFFF;}
</style>
<rect x="20.5" y="221.5" width="600" height="200"/>
<path class="st0" d="M466.6,421.5V275.8h49.3v114.8h64v31.2"/>
<path class="st0" d="M322.5,421.7c-21.8-15.7-32.1-42-32.1-67.2c0-41.7,28-84.4,81-84.4c23.6,0,46.1,8.3,62.6,25
	c6.6,6.9,9.8,12,13,18.2l-41.5,20.4c-3.9-9.3-11.5-25.8-32.4-25.8c-10.8,0-17.7,5.2-21.1,8.3c-11.8,11.3-11.8,28.9-11.8,35.1
	c0,23.1,8.6,44.9,32.9,44.9c23.1,0,29.9-20.4,31.6-25.5l42,20.4c-3.9,7.4-7.9,14.5-15.2,22.1c-3.2,3.2-6.6,5.9-10.3,8.3"/>
<path class="st0" d="M152.5,421.7c-2.2-1.5-3.9-2.9-5.9-4.7c-15.5-15-15.7-32.4-16.2-48.6V276H180v97.1c0,6.6,0.2,13.5,5.6,18.6
	c3.9,4.2,10.1,5.6,15.7,5.6c7.9,0,12.8-2.9,15.7-5.4c5.6-5.4,5.9-12.3,5.9-18.9V276h49.8v82.7c0,17.9,0,41-18.4,58.4
	c-1.7,1.7-3.7,3.2-5.9,4.7"/>
<g>
	<g>
		<path class="st0" d="M105.4,310.9l-26.7-5.6c0,0-26.5,5.6-26.7,5.6s0,0.2,0,0.2l0.2,1.5l0,0l0,0c0,0,0.5,0,0.7,0.2l0.5,2.2
			c0,0,0,0.2,0.2,0.2c0.2,0,1,0,1,0H103c0,0,0.7,0,1,0s0.2,0,0.2,0l0.5-2.2c0.2-0.5,0.7-0.5,0.7-0.5l0,0l0,0l0.2-1.5c0,0,0,0,0-0.2
			H105.4z"/>
		<path class="st0" d="M102.7,315.8L102.7,315.8V315l0,0h-4.2l0,0v0.7l0,0h0.2c0,0,0,0,0,0.2c0,0,0,0.7,0.5,1v0.2c0,0,0,0-0.2,0l0,0
			v0.2v0.2l0,0l0,0l0,0l0,0v15l-0.2,0.2l0,0v0.2l0,0l0,0h-0.2l0,0v0.5h3.9v-0.5l0,0h-0.2l0,0l0,0v0l0,0l-0.2-0.2v-15l0,0l0,0l0,0
			l0,0v-0.2v-0.2l0,0l0,0c0,0-0.2-0.2,0-0.2c0.5-0.2,0.5-0.7,0.5-1V316h0.2V315.8z"/>
		<path class="st0" d="M93.9,315.8L93.9,315.8V315l0,0h-4.2l0,0v0.7l0,0H90c0,0,0,0,0,0.2c0,0,0,0.7,0.5,1v0.2c0,0,0,0-0.2,0l0,0
			v0.2v0.2l0,0l0,0l0,0l0,0v15l-0.2,0.2l0,0v0.2l0,0l0,0h-0.2l0,0v0.5h3.9v-0.5l0,0h-0.2l0,0l0,0v0l0,0l-0.2-0.2v-15l0,0l0,0l0,0
			l0,0v-0.2v-0.2l0,0l0,0c0,0-0.2-0.2,0-0.2c0.5-0.2,0.5-0.7,0.5-1V316h0.2V315.8z"/>
		<path class="st0" d="M85.3,315.8L85.3,315.8V315l0,0h-4.2l0,0v0.7l0,0h0.2c0,0,0,0,0,0.2c0,0,0,0.7,0.5,1v0.2c0,0,0,0-0.2,0l0,0
			v0.2v0.2l0,0l0,0l0,0l0,0v15l-0.2,0.2l0,0v0.2l0,0l0,0h-0.2l0,0v0.5h3.9v-0.5l0,0h-0.2l0,0l0,0v0l0,0l-0.2-0.2v-15l0,0l0,0l0,0
			l0,0v-0.2v-0.2l0,0c0,0,0,0-0.2,0c0,0-0.2-0.2,0-0.2c0.2-0.2,0.5-0.7,0.5-1V316h0.2L85.3,315.8z"/>
		<path class="st0" d="M76.5,315.8L76.5,315.8V315l0,0h-4.2l0,0v0.7l0,0h0.2c0,0,0,0,0,0.2c0,0,0,0.7,0.5,1v0.2c0,0,0,0-0.2,0l0,0
			v0.2v0.2l0,0l0,0l0,0l0,0v15l-0.2,0.2l0,0v0.2l0,0l0,0h-0.2l0,0v0.5h3.9v-0.5l0,0H76l0,0l0,0v0l0,0l-0.2-0.2v-15l0,0l0,0l0,0l0,0
			v-0.2v-0.2l0,0l0,0c0,0-0.2-0.2,0-0.2c0.5-0.2,0.5-0.7,0.5-1V316h0.2V315.8z"/>
		<path class="st0" d="M67.7,315.8L67.7,315.8V315l0,0h-4.2l0,0v0.7l0,0h0.2c0,0,0,0,0,0.2c0,0,0,0.7,0.5,1v0.2c0,0,0,0-0.2,0l0,0
			v0.2v0.2l0,0l0,0l0,0l0,0v15l-0.2,0.2l0,0v0.2l0,0l0,0h-0.2l0,0v0.5h3.9v-0.5l0,0h-0.2l0,0l0,0v0l0,0l-0.2-0.2v-15l0,0l0,0l0,0
			l0,0v-0.2v-0.2l0,0c0,0,0,0-0.2,0c0,0-0.2-0.2,0-0.2c0.5-0.2,0.5-0.7,0.5-1V316h0.2L67.7,315.8z"/>
		<path class="st0" d="M59.1,315.8L59.1,315.8V315l0,0h-4.2l0,0v0.7l0,0h0.2c0,0,0,0,0,0.2c0,0,0,0.7,0.5,1v0.2c0,0,0,0-0.2,0l0,0
			v0.2v0.2l0,0l0,0l0,0l0,0v15l-0.2,0.2l0,0v0.2l0,0l0,0h-0.2l0,0v0.5h3.9v-0.5l0,0h-0.2l0,0l0,0v0l0,0l-0.2-0.2v-15l0,0l0,0l0,0
			l0,0v-0.2v-0.2l0,0c0,0,0,0-0.2,0c0,0-0.2-0.2,0-0.2c0.2-0.2,0.5-0.7,0.5-1V316h0.2L59.1,315.8z"/>
		<g>
			<path class="st0" d="M91.2,299.8c0,0-0.2,0-0.5,0l0,0c0,0,0-0.2,0-0.5l0,0c0,0-0.2,0-0.5,0l0,0v-0.5l0,0H90c0,0-0.2,0-0.2-0.2
				c0-0.5,0.2-4.7-2-7.4c-1.7-2.5-3.9-3.7-5.2-4.4c0-0.5-0.7-0.7-1.2-1c-0.2,0-0.2-0.2-0.2-0.2v-0.2c0-0.2,0.2-0.2,0.5-0.2h0.2v-0.5
				c0,0,0-0.2-0.2-0.2c-0.2,0-0.2,0-0.5,0c0,0-0.2,0-0.2-0.2c0,0,0,0,0-0.2c0-0.2,0-0.2-0.2-0.2v-2.9c0,0,0,0,0.2,0l0,0l0,0l0,0
				v-0.2l0,0h-0.2c0,0,0,0,0-0.2s0-0.2,0-0.2h0l0,0v-0.5l0,0h-0.2c0,0,0,0-0.2,0c-0.5-0.5-1-1-1-1l0,0c0,0,0-0.2-0.2-0.2
				c-0.2,0,0-0.2,0-0.2l0,0c0,0,0,0,0-0.2l-0.2-0.5l0,0c0,0-0.2,0.2-0.2,0.5v0.2l0,0v0.2c-0.2,0-0.2,0-0.2,0.2l0,0c0,0-0.5,0.7-1,1
				c0,0,0,0-0.2,0h-0.2l0,0v0.2l0,0l0,0c0,0,0,0,0,0.2s0,0.2,0,0.2h-0.2l0,0v0.2l0,0l0,0l0,0h0.2v2.9l-0.2,0.2c0,0.2,0,0.2,0,0.2
				s0,0.2-0.2,0.2c0,0-0.2,0-0.5,0c0,0-0.2,0-0.2,0.2v0.5c0,0,0,0,0.2,0c0.2,0,0.5,0,0.5,0.2v0.2c0,0.2-0.2,0.2-0.2,0.2
				c-0.2,0-1,0.2-1.2,1c-1.2,0.5-3.7,2-5.2,4.4c-2.2,2.9-2,6.9-2,7.4c0,0,0,0.2-0.2,0.2h-0.2l0,0v0.5l0,0h-0.5l0,0v0.5l0,0h-0.5l0,0
				c0,0,0,0.2,0,0.5l0,0c0.2,0,0.5,0.2,0.5,0.5c0,0.5,0.2,0.5,0.5,0.5v1.7c0,0.5-0.2,0.5-0.5,0.5l0,0v1.7l12.3-2.7l0,0l12.3,2.7
				v-1.7l0,0c-0.2,0-0.5-0.2-0.5-0.5V301c0,0,0.5,0,0.5-0.5c0-0.2,0.2-0.5,0.5-0.5l0,0c0-0.2,0-0.5,0-0.5l0,0L91.2,299.8z"/>
		</g>
		<polygon class="st0" points="104.7,335.4 102.7,335.4 102.7,333.9 54.9,333.9 54.9,335.4 52.9,335.4 52.9,339.1 50.7,339.1 
			50.7,342.5 106.9,342.5 106.9,339.1 104.7,339.1 		"/>
	</g>
</g>
</svg>
